<svg id="Annual_Reduction_Factor" data-name="Annual Reduction Factor" xmlns="http://www.w3.org/2000/svg" xmlns:xlink="http://www.w3.org/1999/xlink" width="20" height="17.301" viewBox="0 0 20 17.301">
  <defs>
    <clipPath id="clip-path">
      <rect id="Rectangle_809" data-name="Rectangle 809" width="20" height="17.301" fill="none"/>
    </clipPath>
  </defs>
  <g id="Group_3832" data-name="Group 3832" clip-path="url(#clip-path)">
    <path id="Path_7854" data-name="Path 7854" d="M1.2,3.005c0,.38,0,.763,0,1.143.011,3.984-.008,7.971,0,11.955.4,0,.8,0,1.2,0,1.177,0,2.357,0,3.534,0H7.071c1.177,0,2.357,0,3.534,0,.38,0,.763,0,1.143,0,1.177,0,2.357-.009,3.534,0,.38,0,.763,0,1.143,0a1.326,1.326,0,0,0,.23.054c1.1.013,2.2-.014,3.3,0-.012.5.119,1.068-.546,1.143L.6,17.3a.57.57,0,0,1-.6-.6V.535a.6.6,0,0,1,1.2.1c.069.709-.006,1.631,0,2.368" transform="translate(-0.001 0)" fill="#a8c1f3"/>
    <path id="Path_7855" data-name="Path 7855" d="M49.571,132.631c-1.177,0-2.357,0-3.534,0v-9.07a.592.592,0,0,1,.543-.6,17.365,17.365,0,0,1,2.547.006.591.591,0,0,1,.447.593Z" transform="translate(-43.643 -116.528)" fill="#7adb4d"/>
    <path id="Path_7856" data-name="Path 7856" d="M23.034,57.348a11.151,11.151,0,0,1,7.48,2.161c.945.715,1.676,1.6,2.68,2.258a10.341,10.341,0,0,0,6.524,1.557c-.29-.4-.745-.539-.677-1.118a.568.568,0,0,1,.783-.417l1.844,1.794a.58.58,0,0,1,0,.732,14.548,14.548,0,0,1-1.431,1.428c-.322.279-.736.647-1.116.179-.4-.491.062-.812.368-1.109.039-.038.273-.253.227-.291a11.416,11.416,0,0,1-7.977-2.341c-.764-.6-1.39-1.351-2.194-1.912a10.437,10.437,0,0,0-6.513-1.777c0-.38,0-.763,0-1.143" transform="translate(-21.837 -54.343)" fill="#fe4f4f"/>
    <path id="Path_7857" data-name="Path 7857" d="M136.039,195.386l0-5.635a.64.64,0,0,1,.512-.579,15.11,15.11,0,0,1,2.467-.019.644.644,0,0,1,.526.409l.024,5.823c-1.177,0-2.357,0-3.534,0" transform="translate(-128.968 -179.283)" fill="#4fa6fe"/>
    <path id="Path_7858" data-name="Path 7858" d="M229.573,230.5c-1.177-.009-2.357,0-3.534,0l0-3.712a.681.681,0,0,1,.462-.578,16.293,16.293,0,0,1,2.471-.025.593.593,0,0,1,.6.545Z" transform="translate(-214.29 -214.4)" fill="#fec34e"/>
    <path id="Path_7859" data-name="Path 7859" d="M319.1,259.829c-1.1-.012-2.2.015-3.3,0a1.326,1.326,0,0,1-.23-.054c.059-.664-.079-1.459,0-2.106a.673.673,0,0,1,.651-.6,15.774,15.774,0,0,1,2.237,0c.3.026.571.135.636.456a15.575,15.575,0,0,1,.012,2.3" transform="translate(-299.143 -243.674)" fill="#fe4f4f"/>
  </g>
</svg>
