<svg id="calculation_type" xmlns="http://www.w3.org/2000/svg" xmlns:xlink="http://www.w3.org/1999/xlink" width="20" height="19.999" viewBox="0 0 20 19.999">
  <defs>
    <clipPath id="clip-path">
      <rect id="Rectangle_820" data-name="Rectangle 820" width="20" height="19.999" fill="none"/>
    </clipPath>
  </defs>
  <g id="Group_3854" data-name="Group 3854" clip-path="url(#clip-path)">
    <path id="Path_7936" data-name="Path 7936" d="M17.978,3.521a3.671,3.671,0,0,0-3.5-3.5C12.32-.024,10.159.016,8,.019Q8,5,8.01,9.99l9.971.01c0-2.16.042-4.32,0-6.479" transform="translate(2 0)" fill="#d4dadd"/>
    <path id="Path_7937" data-name="Path 7937" d="M13.18,13.943a.328.328,0,0,0,.046-.036.328.328,0,0,1-.046.036" transform="translate(3.295 3.476)" fill="#ff4b00"/>
    <path id="Path_7938" data-name="Path 7938" d="M13.218,13.915a.388.388,0,0,0,.039-.04.388.388,0,0,1-.039.04" transform="translate(3.305 3.468)" fill="#ff4b00"/>
    <path id="Path_7939" data-name="Path 7939" d="M17.981,8l-9.969-.01-.017.026L8,17.982c2.159,0,4.321.044,6.478,0a3.667,3.667,0,0,0,3.5-3.5c.045-2.159.006-4.319,0-6.478m-3.5,7.42a.438.438,0,0,0,.045-.036.438.438,0,0,1-.045.036m.086-.076-.039.04.039-.04" transform="translate(1.999 1.998)" fill="#ff4b00"/>
    <path id="Path_7940" data-name="Path 7940" d="M10,.019c-2.16,0-4.32-.041-6.479,0a3.674,3.674,0,0,0-3.5,3.5C-.023,5.68.016,7.84.019,10q4.753,0,9.509,0c.155,0,.31.011.466.016l.016-.026Q10,5,10,.019" transform="translate(0 0)" fill="#f0f5f7"/>
    <path id="Path_7941" data-name="Path 7941" d="M9.994,8.016C9.839,8.01,9.682,8,9.527,8H.019c0,2.16-.041,4.32,0,6.479a3.674,3.674,0,0,0,3.5,3.5c2.159.045,4.319,0,6.479,0L9.994,8.016" transform="translate(0 1.999)" fill="#d4dadd"/>
    <path id="Path_7942" data-name="Path 7942" d="M12.42,4.877H10.958a1.694,1.694,0,0,1-.2-.006.448.448,0,0,1-.446-.449A.432.432,0,0,1,10.8,4q1.607,0,3.215,0c.309,0,.5.159.5.42a.446.446,0,0,1-.481.453c-.539.01-1.079,0-1.618,0v0" transform="translate(2.579 0.999)" fill="#1996f4"/>
    <path id="Path_7943" data-name="Path 7943" d="M3.281,4.332c.169,0,.339-.005.507,0,.144.006.2-.056.2-.2-.005-.339-.009-.678,0-1.015a.434.434,0,0,1,.655-.4.453.453,0,0,1,.222.427c0,.325.005.65,0,.975,0,.15.05.211.2.209.325-.008.65,0,.975,0a.432.432,0,0,1,.481.425.439.439,0,0,1-.449.445c-.325.015-.65.014-.975,0-.178,0-.244.061-.238.239.01.286,0,.573,0,.859,0,.355-.158.55-.436.553s-.445-.2-.446-.563c0-.293-.005-.585,0-.877,0-.151-.058-.21-.207-.209-.325.005-.65.009-.975,0a.439.439,0,0,1-.469-.515.409.409,0,0,1,.4-.355c.181-.008.364,0,.546,0v0" transform="translate(0.581 0.665)" fill="#1996f4"/>
    <path id="Path_7944" data-name="Path 7944" d="M6.028,11.09a.552.552,0,0,1-.184.365c-.254.253-.5.509-.76.758-.1.094-.1.162,0,.256q.4.386.785.788a.434.434,0,1,1-.6.622c-.254-.243-.5-.495-.746-.742-.18-.179-.18-.179-.365.006-.249.248-.492.5-.747.742a.434.434,0,1,1-.59-.634c.249-.256.5-.513.759-.759.115-.109.125-.186,0-.3-.264-.25-.52-.51-.772-.771a.416.416,0,0,1-.076-.565.421.421,0,0,1,.674-.06c.265.249.525.505.773.771.126.136.207.124.329,0,.249-.265.51-.519.773-.771a.4.4,0,0,1,.484-.1.447.447,0,0,1,.264.392" transform="translate(0.664 2.663)" fill="#1996f4"/>
    <path id="Path_7945" data-name="Path 7945" d="M12.411,11.534c-.532,0-1.065,0-1.6,0a.454.454,0,0,1-.466-.284.438.438,0,0,1,.423-.594c.253-.01.506,0,.76,0,.831,0,1.663,0,2.494,0a.438.438,0,0,1,.479.551.443.443,0,0,1-.472.327c-.539,0-1.079,0-1.618,0" transform="translate(2.579 2.662)" fill="#fff"/>
    <path id="Path_7946" data-name="Path 7946" d="M12.42,12.65h1.6a.469.469,0,0,1,.434.211.433.433,0,0,1-.34.664,4.482,4.482,0,0,1-.467.007h-2.69c-.065,0-.13,0-.194,0a.443.443,0,0,1-.444-.431.434.434,0,0,1,.446-.445c.447-.01.9,0,1.345,0,.1,0,.208,0,.311,0" transform="translate(2.579 3.162)" fill="#fff"/>
  </g>
</svg>
