<svg id="Fall" xmlns="http://www.w3.org/2000/svg" xmlns:xlink="http://www.w3.org/1999/xlink" width="17.323" height="20" viewBox="0 0 17.323 20">
  <defs>
    <clipPath id="clip-path">
      <rect id="Rectangle_845" data-name="Rectangle 845" width="17.322" height="20" fill="none"/>
    </clipPath>
  </defs>
  <g id="Group_3877" data-name="Group 3877" clip-path="url(#clip-path)">
    <path id="Path_8034" data-name="Path 8034" d="M61.582,160c-.1.7.274,1.986-.347,2.449-.2.152-1.041.446-1.126.552-.152.19-.129.723-.549,1.129-.264.256-1.428.8-1.474.875a22.324,22.324,0,0,0,.45,3.066H56.151l.063-3.6a8.9,8.9,0,0,1-1.12-.483c-.358-.181-.615-.326-.989-.5-.775-.366-2.233-.632-2.067-1.7a3.766,3.766,0,0,0,.6-.075l.074.486,1.417.632v-1.342a3.4,3.4,0,0,0,1.193-.149,4.056,4.056,0,0,0,.159,1.705c.526-.081,1.212-.108,1.034-.81.031.014.553.145.6.149-.027.22.06.552-.036.747-.106.216-.536.135-.635.371.3.01.624.307.891.342a4.812,4.812,0,0,0,1.223-.427c.561-.351.285-1.069.346-1.63.123-.124.318-.529.371-.561.1-.057.616-.062.822-.11.031.343-.044.75,0,1.082.011.086-.03.15.11.109a3.432,3.432,0,0,0,.748-.445c.125-.259-.014-.882.037-1.193a2.765,2.765,0,0,0,.6-.671" transform="translate(-48.146 -148.068)" fill="#9a5d0f"/>
    <path id="Path_8035" data-name="Path 8035" d="M4.19,87.566c-.47-.225-1.083.719-1.153.729-.053.008-.215-.105-.318-.115a1.625,1.625,0,0,0-.989.132,1.454,1.454,0,0,0-.8,1.024c-.037.139.017.382-.029.456-.017.027-.205.061-.283.125a1.531,1.531,0,0,0-.042,2.421A2.036,2.036,0,0,0,.9,92.5a4.544,4.544,0,0,0,.093.615,1.428,1.428,0,0,0,.514.567c.411.224.666.07.992.148.055.013.216.354.311.452a1.478,1.478,0,0,0,1.084.445,3.766,3.766,0,0,0,.6-.075c.131-.055.422-.45.6-.522a8.111,8.111,0,0,1-.54-.615,1.816,1.816,0,0,1-.205-1.771,1.577,1.577,0,0,1,.895-1.193,1.947,1.947,0,0,1,.727-.279c.16-.028.544.01.6-.029s.316-.917.532-1.034a2.156,2.156,0,0,1-2.908-1.64" transform="translate(0 -81.005)" fill="#c13333"/>
    <path id="Path_8036" data-name="Path 8036" d="M69.413,83.77A1.989,1.989,0,0,0,68.294,82.5a3.784,3.784,0,0,0,.265-.592A1.653,1.653,0,0,0,66.7,79.9c-.321.04-.256.106-.639.068a2.439,2.439,0,0,0-1.963.311,2.2,2.2,0,0,0-.88,1.991c-.259-.012-.961.445-1.11.349-.132-.085-.379-.544-.644-.7a1.945,1.945,0,0,0-1.3-.2,5.82,5.82,0,0,0-.891.413c-.216.116-.483,1-.532,1.034s-.445,0-.6.029a1.947,1.947,0,0,0-.727.279,1.577,1.577,0,0,0-.895,1.193,1.816,1.816,0,0,0,.205,1.771,8.111,8.111,0,0,0,.54.615c.043.026.831.29.895.3a3.4,3.4,0,0,0,1.193-.149c.029-.011.075-.207.222-.149a2.306,2.306,0,0,0,.971,1.043c.031.014.553.145.6.149a2.431,2.431,0,0,0,1.789-.6c.123-.124.318-.529.371-.561.1-.057.616-.062.822-.11a2.414,2.414,0,0,0,.895-.447,2.765,2.765,0,0,0,.6-.671c.037-.055.07-.242.111-.223a2.1,2.1,0,0,0,3.691-1.864" transform="translate(-52.174 -73.929)" fill="#f6b139"/>
    <path id="Path_8037" data-name="Path 8037" d="M47.931,3.171a2.114,2.114,0,0,0-1.638-.785A2.109,2.109,0,0,0,43.259.21c-.14.06-.343.277-.446.293-.135.022-.471-.172-.665-.2A2.135,2.135,0,0,0,40.6.684c-.18.128-.509.581-.549.589-.151.029-.565-.114-.875-.073a1.533,1.533,0,0,0-1.237,1.782,1.423,1.423,0,0,0-1.417,1.864,1.383,1.383,0,0,0,1.417,1.118c.02.188-.029.418,0,.6A2.156,2.156,0,0,0,40.849,8.2a5.821,5.821,0,0,1,.891-.413,1.945,1.945,0,0,1,1.3.2c.265.158.512.616.644.7.149.1.851-.36,1.11-.349a2.2,2.2,0,0,1,.88-1.991,2.44,2.44,0,0,1,1.963-.311,1.543,1.543,0,0,0,.671-1.193,1.815,1.815,0,0,0-.375-1.676" transform="translate(-33.751 0)" fill="#f67d2c"/>
  </g>
</svg>
