<svg id="route_name" xmlns="http://www.w3.org/2000/svg" width="20.15" height="15.179" viewBox="0 0 20.15 15.179">
  <g id="Group_3759" data-name="Group 3759" transform="translate(11.492)">
    <path id="Path_7626" data-name="Path 7626" d="M300.161,64.648v.63a2,2,0,0,1-.335.551q-2.727,2.747-5.49,5.451a1.278,1.278,0,0,1-.394.157,14.811,14.811,0,0,1-2.125-.039.675.675,0,0,1-.3-.453,12.719,12.719,0,0,1,.039-1.928,1.211,1.211,0,0,1,.236-.472l5.451-5.451a1.255,1.255,0,0,1,1.417-.118q.657.6,1.279,1.24A1.962,1.962,0,0,1,300.161,64.648ZM298,64.058a9.942,9.942,0,0,1,.945.886q-.444.453-.905.885-.462-.432-.905-.885Q297.576,64.508,298,64.058Zm-1.771,1.771a9.949,9.949,0,0,1,.945.885l-3.5,3.5q-.472.03-.945.02-.01-.453.02-.905Q294.5,67.588,296.226,65.829Z" transform="translate(-291.503 -62.811)" fill="#1473e6" fill-rule="evenodd" opacity="0.961"/>
  </g>
  <g id="Group_3760" data-name="Group 3760" transform="translate(0 1.523)">
    <path id="Path_7627" data-name="Path 7627" d="M-.5,108.269v-5.352a1.855,1.855,0,0,1,1.574-1.4q5.628-.039,11.256,0a.613.613,0,0,1,.079,1.181q-5.69,0-11.374.079a.616.616,0,0,0-.3.335q0,2.58-.079,5.156a.646.646,0,0,1-.886.3A2.861,2.861,0,0,1-.5,108.269Z" transform="translate(0.5 -101.5)" fill="#ff4b00" fill-rule="evenodd" opacity="0.967"/>
  </g>
  <g id="Group_3761" data-name="Group 3761" transform="translate(0.598 4.868)">
    <path id="Path_7628" data-name="Path 7628" d="M19.018,186.495a2.709,2.709,0,0,1,2.066.866,2.279,2.279,0,0,1,.2,2.283,5.172,5.172,0,0,1-1.476,1.869,10.382,10.382,0,0,1-2.322,1.4q-.114,1.432-.138,2.873a.623.623,0,0,1-.846.374.659.659,0,0,1-.335-.413,21.5,21.5,0,0,1,.059-2.4q-.371.1-.748.177-1.045.026-.689-.964a.7.7,0,0,1,.216-.177A9.556,9.556,0,0,0,16.3,192a14.408,14.408,0,0,1,.846-3.7,3.7,3.7,0,0,1,.964-1.4A2.361,2.361,0,0,1,19.018,186.495Zm.079,1.259a1.234,1.234,0,0,1,1.043.433.945.945,0,0,1,.039.905,4.485,4.485,0,0,1-1.122,1.436,8.774,8.774,0,0,1-1.4.925,7.865,7.865,0,0,1,.905-3.227A1.312,1.312,0,0,1,19.1,187.754Z" transform="translate(-14.697 -186.495)" fill="#1d78e7" fill-rule="evenodd" opacity="0.963"/>
  </g>
  <g id="Group_3762" data-name="Group 3762" transform="translate(4.417 7.426)">
    <path id="Path_7629" data-name="Path 7629" d="M124.98,251.5a.632.632,0,0,1,.649.433q.039,2.912,0,5.825A1.748,1.748,0,0,1,124,259.23q-5.884.039-11.767,0a.622.622,0,0,1-.374-1,.554.554,0,0,1,.256-.177l11.807-.039a.656.656,0,0,0,.492-.413q.02-2.814.039-5.628A.655.655,0,0,1,124.98,251.5Z" transform="translate(-111.726 -251.496)" fill="#ff4b00" fill-rule="evenodd" opacity="0.965"/>
  </g>
  <g id="Group_3763" data-name="Group 3763" transform="translate(5.601 9.012)">
    <path id="Path_7630" data-name="Path 7630" d="M143.993,291.823a.928.928,0,0,1,1.122.551q.064.314.118.63l.492-.492a.971.971,0,0,1,1.279.3,1.389,1.389,0,0,0,.453.551q.943-.272,1.889-.531.856-.049.728.807a.616.616,0,0,1-.3.335q-1.25.381-2.519.689a1.113,1.113,0,0,1-.551-.177,3.371,3.371,0,0,1-.531-.689,7.106,7.106,0,0,1-.61.649,1.08,1.08,0,0,1-.945.118.975.975,0,0,1-.492-.531q-.05-.279-.118-.551-.6.746-1.279,1.436a.623.623,0,0,1-.925-.413.712.712,0,0,1,.118-.512l1.614-1.85A1.721,1.721,0,0,1,143.993,291.823Z" transform="translate(-141.801 -291.795)" fill="#1d78e7" fill-rule="evenodd" opacity="0.961"/>
  </g>
</svg>
