<svg id="spring" xmlns="http://www.w3.org/2000/svg" xmlns:xlink="http://www.w3.org/1999/xlink" width="14.515" height="20" viewBox="0 0 14.515 20">
  <defs>
    <clipPath id="clip-path">
      <rect id="Rectangle_850" data-name="Rectangle 850" width="14.515" height="20" fill="none"/>
    </clipPath>
  </defs>
  <g id="Group_3879" data-name="Group 3879" clip-path="url(#clip-path)">
    <path id="Path_8051" data-name="Path 8051" d="M1.4,43.273a7.249,7.249,0,0,1,3.008,1.979A3.424,3.424,0,0,0,4.4,49.029a8.212,8.212,0,0,1-2.623,1.913c-.116.052-.255.011-.213.212-1.071-.147-.573-1.51,0-1.992l1.173-.815C2.015,48.474.062,48.121,0,47.208c-.064-.956,1.925-1.386,2.65-1.283l-.977-.7a1.643,1.643,0,0,1-.7-1.644c.1-.321.258-.233.433-.308" transform="translate(0 -39.897)" fill="#ff97f0"/>
    <path id="Path_8052" data-name="Path 8052" d="M44.793,13.143a5.631,5.631,0,0,1,.39,1.17,3.425,3.425,0,0,0-1.092.469,4.168,4.168,0,0,0-2.107-2.809.733.733,0,0,1,.41-.643c.915-.375,2.049,1.111,2.4,1.813" transform="translate(-38.708 -10.391)" fill="#e26dd7"/>
    <path id="Path_8053" data-name="Path 8053" d="M43.885,23.082a3.426,3.426,0,0,0-.6.5c-.445-.266-.587-.771-.965-1.042a4.136,4.136,0,0,1-.546-2.263,4.168,4.168,0,0,1,2.107,2.809" transform="translate(-38.502 -18.691)" fill="#ff97f0"/>
    <path id="Path_8054" data-name="Path 8054" d="M136.1,77.273c-.046.219.515.264.7.351.714.334,1.011,1.009.306,1.553-.352.272-.736.284-1.085.514h-.078c-.357-.1-.8-.081-1.178-.159a3.423,3.423,0,0,0-.01-2.1,9.579,9.579,0,0,0,1.344-.162" transform="translate(-124.241 -71.244)" fill="#ff97f0"/>
    <path id="Path_8055" data-name="Path 8055" d="M33.984,182.175c1.522-.508,3.135,1.161,2.967,2.694-.025.229-.209.388-.122.58.157.348,1.141.981,1.408,1.329l.039-4.447a3.6,3.6,0,0,0,.624,0v4.447a11.953,11.953,0,0,0,1.37-1.247.625.625,0,0,0,.112-.236.686.686,0,0,0,.236-.112,10.2,10.2,0,0,1,1.537-1.439.3.3,0,0,1,.295.456,19.533,19.533,0,0,1-1.41,1.4.656.656,0,0,0-.112.236.664.664,0,0,0-.236.112,23.465,23.465,0,0,1-2.07,1.921.287.287,0,0,1-.234-.078L36.4,185.879c-.173-.077-.619.131-.894.126s-.332-.108-.508-.162c.211-.1.678-.483.616-.725-.07-.275-1.4-1.027-.771-1.346.292-.149.621.343.818.51a2.724,2.724,0,0,0-1.678-2.106" transform="translate(-31.333 -167.877)" fill="#4fcc69"/>
    <path id="Path_8056" data-name="Path 8056" d="M22.87,183.273a2.724,2.724,0,0,1,1.678,2.106c-.2-.167-.526-.66-.818-.51-.624.319.7,1.071.771,1.346.062.242-.4.626-.616.725a2.377,2.377,0,0,1-1.055-.544c-.936-.835-1.454-2.624.041-3.122" transform="translate(-20.218 -168.974)" fill="#6de371"/>
    <path id="Path_8057" data-name="Path 8057" d="M115.945,183.273c1.284.851.662,2.485-.351,3.277l-.663.468a.85.85,0,0,0-.234-.078.655.655,0,0,1,.112-.236,19.546,19.546,0,0,0,1.41-1.4.3.3,0,0,0-.295-.456,10.2,10.2,0,0,0-1.537,1.439.686.686,0,0,1-.236.112,2.432,2.432,0,0,1,1.794-3.121" transform="translate(-105.101 -168.974)" fill="#6de371"/>
    <path id="Path_8058" data-name="Path 8058" d="M125.984,185.726l.663-.468c1.013-.792,1.635-2.426.351-3.277a1.359,1.359,0,0,1,1.733.491c.914,1.532-1.128,3.717-2.747,3.254" transform="translate(-116.155 -167.683)" fill="#4fcc69"/>
    <path id="Path_8059" data-name="Path 8059" d="M87.7,2.6a10.479,10.479,0,0,1-.39,1.324,3.423,3.423,0,0,0-.937-.085,4.743,4.743,0,0,0-.39-3.5c.305-.3.484-.473.933-.191.71.446.842,1.695.784,2.454" transform="translate(-79.276 0)" fill="#e26dd7"/>
    <path id="Path_8060" data-name="Path 8060" d="M78.879,7.775a3.425,3.425,0,0,0-.624.087,5.639,5.639,0,0,0-.39-1.17,2.96,2.96,0,0,1,.624-2.419,4.743,4.743,0,0,1,.39,3.5" transform="translate(-71.781 -3.94)" fill="#ff97f0"/>
    <path id="Path_8061" data-name="Path 8061" d="M86.379,135.764a10.407,10.407,0,0,1,.4,1.288,3.577,3.577,0,0,1-.326,1.976c-.077.145-.394.564-.532.6a3.6,3.6,0,0,1-.624,0c-.187-.048-.251-.307-.312-.39.185.041.164-.093.22-.2a4.769,4.769,0,0,0,.25-3.184,3.424,3.424,0,0,0,.926-.083" transform="translate(-78.354 -125.172)" fill="#e26dd7"/>
    <path id="Path_8062" data-name="Path 8062" d="M78.077,135.824a4.769,4.769,0,0,1-.25,3.184c-.056.112-.035.246-.22.2a2,2,0,0,1-.429-.78c-.152-.541-.058-.97-.195-1.483a5.824,5.824,0,0,0,.478-1.212,3.424,3.424,0,0,0,.616.085" transform="translate(-70.977 -125.149)" fill="#ff97f0"/>
    <path id="Path_8063" data-name="Path 8063" d="M43.826,123.654a5.456,5.456,0,0,1-1.893,3.231c-.119-.129-.194-.121-.229-.356a3.593,3.593,0,0,1,.62-2.375,5.163,5.163,0,0,1,.87-1.026,3.422,3.422,0,0,0,.633.526" transform="translate(-38.423 -113.522)" fill="#ff97f0"/>
    <path id="Path_8064" data-name="Path 8064" d="M47.958,130.325a5.822,5.822,0,0,1-.478,1.212c-.387.753-1.176,1.9-2.147,1.8-.267-.027-.22-.1-.349-.24a5.456,5.456,0,0,0,1.893-3.23,3.424,3.424,0,0,0,1.081.458" transform="translate(-41.474 -119.735)" fill="#e26dd7"/>
    <path id="Path_8065" data-name="Path 8065" d="M20.4,41.787c.378.271.521.776.965,1.042a3.425,3.425,0,0,0-.376.469,7.249,7.249,0,0,0-3.008-1.979c.073-.031.1-.124.274-.152a3.931,3.931,0,0,1,2.144.62" transform="translate(-16.581 -37.943)" fill="#e26dd7"/>
    <path id="Path_8066" data-name="Path 8066" d="M126.282,45a3.424,3.424,0,0,0-.654-1.066c.25-.416.569-.737.808-1.117.482-.145.905-.435,1.4-.546,1.128,1-.62,2.385-1.558,2.73" transform="translate(-115.827 -38.975)" fill="#ff97f0"/>
    <path id="Path_8067" data-name="Path 8067" d="M135.571,41.32c2.069-.459,1.93,1.146.661,2.183-.134.109-.8.483-.817.548.71-.039,2.66.228,2.657,1.209,0,1.027-1.974,1.336-2.735,1.209.349-.23.733-.242,1.085-.514.705-.544.408-1.22-.306-1.553-.187-.087-.748-.132-.7-.351a9.58,9.58,0,0,1-1.344.162q-.027-.082-.058-.163c.938-.345,2.686-1.728,1.558-2.73" transform="translate(-123.557 -38.022)" fill="#e26dd7"/>
    <path id="Path_8068" data-name="Path 8068" d="M23.1,117.519a5.166,5.166,0,0,0-.87,1.026,3.9,3.9,0,0,1-2.341.624c-.042-.2.1-.16.213-.212a8.212,8.212,0,0,0,2.623-1.913,3.419,3.419,0,0,0,.375.475" transform="translate(-18.334 -107.912)" fill="#e26dd7"/>
    <path id="Path_8069" data-name="Path 8069" d="M117.419,14.243c-.239.38-.558.7-.808,1.117a3.424,3.424,0,0,0-.763-.632c.646-.789,1.433-2.2.791-3.138.244-.142.326-.337.732-.309,1.382.1.458,2.309.049,2.962" transform="translate(-106.81 -10.398)" fill="#e26dd7"/>
    <path id="Path_8070" data-name="Path 8070" d="M104.784,15.273c.642.939-.145,2.349-.791,3.138a3.422,3.422,0,0,0-1-.409,10.479,10.479,0,0,0,.39-1.324c.173.039.165-.1.232-.193a2.881,2.881,0,0,1,1.172-1.212" transform="translate(-94.955 -14.081)" fill="#ff97f0"/>
    <path id="Path_8071" data-name="Path 8071" d="M56,52.53a3.424,3.424,0,1,0-3.424,3.424A3.424,3.424,0,0,0,56,52.53" transform="translate(-45.32 -45.275)" fill="#d57b42"/>
    <path id="Path_8072" data-name="Path 8072" d="M128.039,110.766a5.794,5.794,0,0,1-1.4-.546,10.445,10.445,0,0,1-.791-1.1,3.423,3.423,0,0,0,.658-1.1c.921.475,2.657,1.753,1.538,2.751" transform="translate(-116.025 -99.588)" fill="#ff97f0"/>
    <path id="Path_8073" data-name="Path 8073" d="M135.5,106.4c.741.213,2.321,1.553,1.826,2.412-.32.556-1.011.418-1.514.319,1.119-1-.616-2.276-1.538-2.751q.025-.069.047-.138c.381.078.821.056,1.178.159" transform="translate(-123.801 -97.951)" fill="#e26dd7"/>
    <path id="Path_8074" data-name="Path 8074" d="M115.428,123.25a3.175,3.175,0,0,1,.564,2.554c-.217.484-.534.434-.954.333a4.873,4.873,0,0,0-1.349-3.242,3.422,3.422,0,0,0,.948-.747,10.445,10.445,0,0,0,.791,1.1" transform="translate(-104.818 -112.618)" fill="#e26dd7"/>
    <path id="Path_8075" data-name="Path 8075" d="M103.711,131.719a4.873,4.873,0,0,1,1.349,3.242,2.182,2.182,0,0,1-1.169-.821l-.626-.817a10.406,10.406,0,0,0-.4-1.288,3.424,3.424,0,0,0,.844-.316" transform="translate(-94.841 -121.442)" fill="#ff97f0"/>
  </g>
</svg>
