<svg id="Winter" xmlns="http://www.w3.org/2000/svg" xmlns:xlink="http://www.w3.org/1999/xlink" width="18.283" height="20" viewBox="0 0 18.283 20">
  <defs>
    <clipPath id="clip-path">
      <rect id="Rectangle_794" data-name="Rectangle 794" width="18.283" height="20" transform="translate(0 0)" fill="none"/>
    </clipPath>
  </defs>
  <g id="Group_3824" data-name="Group 3824" clip-path="url(#clip-path)">
    <path id="Path_7837" data-name="Path 7837" d="M9.782,13.036c.092.321,2.069,1.85,2.353,2.339a.746.746,0,0,1-.141,1.048c-.751.61-1.632-.9-2.211-1.236a3.643,3.643,0,0,0,.066,1.171c.249.549,2.651,1.937,1.552,2.729-.726.524-1.542-.745-1.619-.641.343,2.079-1.746,2.063-1.436,0-.47.3-.865,1.076-1.505.661-1.2-.776,1.165-2.014,1.439-2.618a4.449,4.449,0,0,0,.066-1.3c-.58.292-1.236,1.609-1.914,1.34-.653-.259-.5-.876-.562-.949a5.3,5.3,0,0,1-.838.133c-.969-.146-.147-1.741-.073-2.285.063-.469-.915.246-1.019.417-.384.634-.357,2.911-1.364,2.757-.855-.131-.612-1.086-.486-1.672-.11-.114-1.224.812-1.63.131-.484-.812.581-1.141.979-1.565-.755.037-1.975-.58-1.18-1.377.565-.566,2.077.357,2.812.346.5-.008.658-.336,1.105-.406-.532-.721-2.3-.2-2.086-1.491.094-.574.646-.482,1.075-.43a28.177,28.177,0,0,0,2.9.747c.4-.04,1.017-.764,1.5-.782.177-.239-1.241-1.014-1.511-1.039-.879-.082-2.926,1-3.569.714a.868.868,0,0,1-.4-.529c-.145-1.01,1.46-.957,2.09-1.232-.848-1.51-3.213.592-3.97-.265-.63-.713.381-1.361,1.1-1.3C1.615,6.115-.062,5.943.46,4.887c.279-.564,1.237-.126,1.628.132.131-.176-.51-1.284.266-1.631,1.3-.583,1.182,2.265,1.593,2.771.094.116.823.384,1.009.554,0-.654-.593-1.612-.322-2.213.315-.7,1.16-.183,1.235-.263.036-.039-.064-.735.487-.891.838-.236,1.363.914,1.99,1.281A3.651,3.651,0,0,0,8.28,3.457C7.993,2.825,5.964,1.838,6.644.9c.55-.757,1.255.091,1.7.466-.321-1.819,1.8-1.831,1.436,0,.215.254,1.1-1.515,1.811-.306.474.8-1.464,1.778-1.744,2.395a3.668,3.668,0,0,0-.067,1.17c.179.2,1.187-1.079,1.361-1.18a.7.7,0,0,1,1.119.717C12.2,4.626,9.782,6.6,9.782,6.779v1.89a4.677,4.677,0,0,0,1.751-1.052c.386-.656.534-2.866.989-3.313a.7.7,0,0,1,1.145.286c.215.731-.426,1.407-.3,2.123.171-.231.889-.444.99-.606.413-.667.207-3.3,1.652-2.7.6.252.054,1.462.163,1.609.957-.922,2.379.107,1.3.976-.09.073-.768.245-.518.458.083.07,1.976.2,1.1,1.3-.69.867-3.16-1.241-3.968.267.637.223,2.231.251,2.09,1.232a.868.868,0,0,1-.4.529c-.643.289-2.691-.8-3.569-.714-.269.025-1.688.8-1.511,1.039a12.63,12.63,0,0,0,1.624.768c.656.02,2-.637,2.776-.733.429-.053.98-.144,1.075.43.212,1.288-1.545.8-2.086,1.491.447.07.6.4,1.1.406.7.01,3.067-1.242,3.032.159-.017.7-.843.858-1.4.872.272.417,1.022.446,1.008,1.083-.029,1.317-1.588.273-1.659.35,0,.592.442,1.282-.3,1.6-1.189.505-1.143-2.1-1.541-2.692a6.594,6.594,0,0,0-.836-.6c-.29-.118-.156.146-.141.27.074.587.484,1.282.312,1.853-.13.432-.777.459-1.093.232-.531-.382-.656-2.8-1.092-3.436-.217-.318-1.348-.7-1.7-1.006.092.511-.125,1.449,0,1.89M5.936,4.367V4.5q.127-.065,0-.131m2.412,4.3V6.779A18.813,18.813,0,0,0,6.2,4.628C6,4.547,5.99,4.666,6,4.823a14.439,14.439,0,0,0,.8,2.851c.28.441,1.116.662,1.548.995m0,2.607a9.987,9.987,0,0,0-1.575.869c-.4.638-.507,2.46-.9,3.236.114.2.219.028.319-.072.389-.39.75-.887,1.179-1.3.163-.156.981-.716.981-.844Z" transform="translate(0 0)" fill="#34c2fd"/>
  </g>
</svg>
